{
	"asset":{
		"generator":"Khronos glTF Blender I/O v4.3.47",
		"version":"2.0"
	},
	"scene":0,
	"scenes":[
		{
			"name":"Scene",
			"nodes":[
				0
			]
		}
	],
	"nodes":[
		{
			"mesh":0,
			"name":"FloorLamp_Test"
		}
	],
	"materials":[
		{
			"doubleSided":true,
			"emissiveFactor":[
				1,
				1,
				1
			],
			"emissiveTexture":{
				"index":0
			},
			"name":"Brass",
			"normalTexture":{
				"index":1
			},
			"pbrMetallicRoughness":{
				"baseColorTexture":{
					"index":2
				},
				"metallicRoughnessTexture":{
					"index":3
				}
			}
		}
	],
	"meshes":[
		{
			"name":"Circle.001",
			"primitives":[
				{
					"attributes":{
						"POSITION":0,
						"NORMAL":1,
						"TEXCOORD_0":2,
						"TEXCOORD_1":3,
						"COLOR_0":4,
						"COLOR_1":5,
						"COLOR_2":6
					},
					"indices":7,
					"material":0
				}
			]
		}
	],
	"textures":[
		{
			"sampler":0,
			"source":0
		},
		{
			"sampler":0,
			"source":1
		},
		{
			"sampler":0,
			"source":2
		},
		{
			"sampler":0,
			"source":3
		}
	],
	"images":[
		{
			"mimeType":"image/png",
			"name":"FloorLamp_Emissive",
			"uri":"FloorLamp_Emissive.png"
		},
		{
			"mimeType":"image/png",
			"name":"FloorLamp_Normal",
			"uri":"FloorLamp_Normal.png"
		},
		{
			"mimeType":"image/png",
			"name":"FloorLamp_BaseColor",
			"uri":"FloorLamp_BaseColor.png"
		},
		{
			"mimeType":"image/png",
			"name":"FloorLamp_OcclusionRoughnessMetallic",
			"uri":"FloorLamp_OcclusionRoughnessMetallic.png"
		}
	],
	"accessors":[
		{
			"bufferView":0,
			"componentType":5126,
			"count":13261,
			"max":[
				1.036602258682251,
				4.738589286804199,
				0.663403332233429
			],
			"min":[
				-0.7260000705718994,
				0,
				-0.663403332233429
			],
			"type":"VEC3"
		},
		{
			"bufferView":1,
			"componentType":5126,
			"count":13261,
			"type":"VEC3"
		},
		{
			"bufferView":2,
			"componentType":5126,
			"count":13261,
			"type":"VEC2"
		},
		{
			"bufferView":3,
			"componentType":5126,
			"count":13261,
			"type":"VEC2"
		},
		{
			"bufferView":4,
			"componentType":5121,
			"count":13261,
			"normalized":true,
			"type":"VEC4"
		},
		{
			"bufferView":5,
			"componentType":5123,
			"count":13261,
			"normalized":true,
			"type":"VEC4"
		},
		{
			"bufferView":6,
			"componentType":5123,
			"count":13261,
			"normalized":true,
			"type":"VEC4"
		},
		{
			"bufferView":7,
			"componentType":5123,
			"count":56712,
			"type":"SCALAR"
		}
	],
	"bufferViews":[
		{
			"buffer":0,
			"byteLength":159132,
			"byteOffset":0,
			"target":34962
		},
		{
			"buffer":0,
			"byteLength":159132,
			"byteOffset":159132,
			"target":34962
		},
		{
			"buffer":0,
			"byteLength":106088,
			"byteOffset":318264,
			"target":34962
		},
		{
			"buffer":0,
			"byteLength":106088,
			"byteOffset":424352,
			"target":34962
		},
		{
			"buffer":0,
			"byteLength":53044,
			"byteOffset":530440,
			"target":34962
		},
		{
			"buffer":0,
			"byteLength":106088,
			"byteOffset":583484,
			"target":34962
		},
		{
			"buffer":0,
			"byteLength":106088,
			"byteOffset":689572,
			"target":34962
		},
		{
			"buffer":0,
			"byteLength":113424,
			"byteOffset":795660,
			"target":34963
		}
	],
	"samplers":[
		{
			"magFilter":9729,
			"minFilter":9987
		}
	],
	"buffers":[
		{
			"byteLength":909084,
			"uri":"FloorLamp.bin"
		}
	]
}
